<?xml version="1.0" encoding="UTF-8"?>
<svg version="1.1" xmlns="http://www.w3.org/2000/svg" width="256" height="256">
<path d="M0 0 C1.25296875 0.350625 2.5059375 0.70125 3.796875 1.0625 C28.58877343 8.46920824 50.38757154 24.57710004 66 45 C66.67804688 45.86238281 67.35609375 46.72476563 68.0546875 47.61328125 C76.89937802 59.22839039 83.08607258 71.94940411 87.35058594 85.87890625 C87.7651093 87.2328081 88.19404708 88.58243661 88.64160156 89.92578125 C95.41800018 110.67380363 94.99860993 139.38854464 88 160 C87.75862305 160.75941895 87.51724609 161.51883789 87.26855469 162.30126953 C81.76686104 179.46032537 73.50468447 194.17979266 62 208 C61.25878906 208.89460937 60.51757812 209.78921875 59.75390625 210.7109375 C40.30888518 233.24081931 9.68786086 249.63463368 -20.13262939 252.18218994 C-25.35837299 252.47489535 -30.58026292 252.48025141 -35.8125 252.4375 C-36.99980209 252.43293793 -36.99980209 252.43293793 -38.21109009 252.42828369 C-49.91579635 252.3617822 -60.82191466 251.72413898 -72 248 C-73.43749597 247.55988268 -74.8749961 247.11977893 -76.3125 246.6796875 C-95.12052484 240.67752713 -110.6914608 230.55893931 -125 217 C-126.36318359 215.73349609 -126.36318359 215.73349609 -127.75390625 214.44140625 C-134.57506975 207.90485319 -139.96567871 200.98259785 -145 193 C-145.68964844 191.92105469 -146.37929687 190.84210938 -147.08984375 189.73046875 C-152.79515637 180.32382088 -156.71957418 170.48622073 -160 160 C-160.2273584 159.28875977 -160.4547168 158.57751953 -160.68896484 157.84472656 C-167.12588453 136.69838164 -166.69850399 109.00329781 -160 88 C-159.75862305 87.22205078 -159.51724609 86.44410156 -159.26855469 85.64257812 C-153.80751571 68.48323805 -145.43667118 53.83837213 -134 40 C-133.3709375 39.22914062 -132.741875 38.45828125 -132.09375 37.6640625 C-128.12091347 32.9508337 -123.78497043 28.87903799 -119 25 C-118.13761719 24.30003906 -117.27523437 23.60007812 -116.38671875 22.87890625 C-103.25208963 12.6235869 -88.83822269 5.1476801 -73 0 C-72.3179248 -0.2259082 -71.63584961 -0.45181641 -70.93310547 -0.68457031 C-49.63103003 -7.35331333 -21.15647944 -6.84209548 0 0 Z " fill="#D77700" transform="translate(164,4)"/>
<path d="M0 0 C4.98064008 2.39147251 9.01312409 4.9567167 13.05078125 8.71484375 C18.2516845 12.98968689 23.83920055 12.6234707 30.234375 12.7265625 C35.77622381 12.84341938 41.10571791 13.83054361 46.53491211 14.88769531 C53.09406749 16.11132203 59.77026678 17.34341411 65.80078125 13.96484375 C70.33765374 11.42926631 74.68075953 10.69330086 79.86328125 10.90234375 C84.84820573 12.50128179 88.16008478 15.4507777 90.86328125 19.90234375 C91.61132813 21.78979492 91.61132813 21.78979492 92.26953125 23.8828125 C92.52371826 24.67945312 92.77790527 25.47609375 93.03979492 26.296875 C93.31154541 27.15667969 93.5832959 28.01648438 93.86328125 28.90234375 C94.47386606 30.739614 95.08454786 32.57685202 95.6953125 34.4140625 C102.79718388 56.31862964 109.86045752 79.65126688 107.86328125 102.90234375 C107.78980469 103.94261719 107.71632812 104.98289062 107.640625 106.0546875 C105.34937745 125.67514069 93.59669763 143.831733 78.37890625 155.8671875 C66.1766385 164.22308824 51.15206317 169.48714236 36.86328125 172.90234375 C35.88311035 173.13695312 34.90293945 173.3715625 33.89306641 173.61328125 C26.22921103 175.43323574 18.55587357 177.20782167 10.86328125 178.90234375 C9.96915527 179.1031958 9.0750293 179.30404785 8.15380859 179.51098633 C-4.42655605 182.21162948 -17.86696013 182.98713353 -29.13671875 175.90234375 C-32.7326719 173.13703475 -35.94777229 170.12355611 -39.13671875 166.90234375 C-40.23693359 165.82146484 -40.23693359 165.82146484 -41.359375 164.71875 C-43.30312631 162.79679777 -45.22327634 160.85439823 -47.13671875 158.90234375 C-48.02359375 158.01546875 -48.91046875 157.12859375 -49.82421875 156.21484375 C-52.13671875 153.90234375 -52.13671875 153.90234375 -54.26171875 151.15234375 C-58.01217817 148.2172016 -60.71893718 148.43274477 -65.359375 148.18359375 C-71.55388352 147.55630175 -75.69122161 144.67700385 -79.88671875 140.21484375 C-87.13442409 131.10960295 -88.41126432 122.48539117 -87.44140625 111.04833984 C-85.9716686 100.69658189 -78.65571888 93.51585453 -71.13671875 86.90234375 C-70.10289063 86.1340625 -69.0690625 85.36578125 -68.00390625 84.57421875 C-64.73129174 81.52453438 -63.55452724 78.73971843 -62.26171875 74.58984375 C-57.77907929 61.67008682 -52.79339834 51.21883424 -43.18359375 41.390625 C-40.53483796 38.17066805 -40.19379534 35.81763067 -39.734375 31.7734375 C-37.23755152 19.77889335 -29.06763862 7.88082798 -19.13671875 0.90234375 C-13.27310195 -2.58275604 -6.29639303 -2.20334551 0 0 Z " fill="#060401" transform="translate(115.13671875,36.09765625)"/>
<path d="M0 0 C1.25296875 0.350625 2.5059375 0.70125 3.796875 1.0625 C28.58877343 8.46920824 50.38757154 24.57710004 66 45 C66.67804688 45.86238281 67.35609375 46.72476563 68.0546875 47.61328125 C76.89937802 59.22839039 83.08607258 71.94940411 87.35058594 85.87890625 C87.7651093 87.2328081 88.19404708 88.58243661 88.64160156 89.92578125 C95.41800018 110.67380363 94.99860993 139.38854464 88 160 C87.75862305 160.75941895 87.51724609 161.51883789 87.26855469 162.30126953 C81.76686104 179.46032537 73.50468447 194.17979266 62 208 C61.25878906 208.89460937 60.51757812 209.78921875 59.75390625 210.7109375 C40.30888518 233.24081931 9.68786086 249.63463368 -20.13262939 252.18218994 C-25.35837299 252.47489535 -30.58026292 252.48025141 -35.8125 252.4375 C-36.99980209 252.43293793 -36.99980209 252.43293793 -38.21109009 252.42828369 C-49.91579635 252.3617822 -60.82191466 251.72413898 -72 248 C-73.43749597 247.55988268 -74.8749961 247.11977893 -76.3125 246.6796875 C-95.12052484 240.67752713 -110.6914608 230.55893931 -125 217 C-126.36318359 215.73349609 -126.36318359 215.73349609 -127.75390625 214.44140625 C-134.57506975 207.90485319 -139.96567871 200.98259785 -145 193 C-145.68964844 191.92105469 -146.37929687 190.84210938 -147.08984375 189.73046875 C-152.79515637 180.32382088 -156.71957418 170.48622073 -160 160 C-160.2273584 159.28875977 -160.4547168 158.57751953 -160.68896484 157.84472656 C-167.12588453 136.69838164 -166.69850399 109.00329781 -160 88 C-159.75862305 87.22205078 -159.51724609 86.44410156 -159.26855469 85.64257812 C-153.80751571 68.48323805 -145.43667118 53.83837213 -134 40 C-133.3709375 39.22914062 -132.741875 38.45828125 -132.09375 37.6640625 C-128.12091347 32.9508337 -123.78497043 28.87903799 -119 25 C-118.13761719 24.30003906 -117.27523437 23.60007812 -116.38671875 22.87890625 C-103.25208963 12.6235869 -88.83822269 5.1476801 -73 0 C-72.3179248 -0.2259082 -71.63584961 -0.45181641 -70.93310547 -0.68457031 C-49.63103003 -7.35331333 -21.15647944 -6.84209548 0 0 Z M-124.36816406 46.53173828 C-145.17938659 71.08714322 -155.12840534 101.984772 -153 134 C-150.60789574 158.358309 -141.08959426 181.49390774 -125 200 C-123.95199219 201.24716797 -123.95199219 201.24716797 -122.8828125 202.51953125 C-104.730677 223.54629319 -80.83808437 234.90624113 -54 240 C-53.19755859 240.1757959 -52.39511719 240.3515918 -51.56835938 240.53271484 C-24.68095501 245.4245867 7.20594274 236.57376831 29.55932617 221.43066406 C57.29806193 201.76130847 74.80070146 173.21597029 80.60961914 139.84277344 C81.24406678 135.22269323 81.33952815 130.65812012 81.3125 126 C81.30903564 125.01104736 81.30557129 124.02209473 81.30200195 123.00317383 C81.11637764 110.20740255 79.51932806 97.044725 75 85 C74.66355469 84.08605469 74.32710937 83.17210938 73.98046875 82.23046875 C69.16535638 69.94307498 62.65609157 58.95862725 54 49 C53.31292969 48.18015625 52.62585938 47.3603125 51.91796875 46.515625 C33.17395684 24.76581659 4.65897321 9.98850255 -24 7 C-61.96091678 4.2663054 -98.76759464 17.87042983 -124.36816406 46.53173828 Z " fill="#CB6700" transform="translate(164,4)"/>
<path d="M0 0 C2.86470365 1.13312764 5.68570779 2.30611955 8.5 3.5625 C13.76986933 5.72691062 18.28595624 6.41556682 24 6 C24.61875 5.505 25.2375 5.01 25.875 4.5 C29.31233809 2.0736437 32.92842175 2.71644366 37 3 C38.4540625 3.0928125 38.4540625 3.0928125 39.9375 3.1875 C40.9584375 3.5896875 40.9584375 3.5896875 42 4 C42.70211894 5.65204456 43.36971413 7.31923769 44 9 C51.52827872 11.97168897 61.52998257 10.49000581 69 8 C72.30370825 7.36737502 74.09324811 7.44268807 76.9765625 9.21484375 C84.50431281 15.2060308 88.49070366 23.59450693 90 33 C90.13222053 34.49938078 90.25700666 35.99943258 90.375 37.5 C91.38019493 46.57768348 96.18811189 51.61754109 102.67114258 57.61254883 C106.92038963 61.60503571 109.53036154 65.2502328 110.5390625 71.15625 C110.83118884 82.52262013 107.24645387 90.05929035 100.69921875 99.21875 C95.44872779 104.62880726 88.14089998 105.96562762 81.0625 107.9375 C80.14025635 108.19692383 79.2180127 108.45634766 78.26782227 108.72363281 C33.01848553 121.35790831 33.01848553 121.35790831 18.26171875 114.41796875 C14.07179478 111.79112522 10.39749919 108.58624914 7 105 C7 104.67 7 104.34 7 104 C7.99257812 103.79246094 8.98515625 103.58492188 10.0078125 103.37109375 C25.85171777 99.86113184 40.15945886 93.91911891 49.5625 80 C50.38842409 78.67494022 51.20630517 77.34461242 52 76 C51.30970703 75.40251953 51.30970703 75.40251953 50.60546875 74.79296875 C48.7325678 72.70133484 48.12610698 70.98578008 47.3125 68.3125 C47.06113281 67.50425781 46.80976562 66.69601563 46.55078125 65.86328125 C46.36902344 65.24839844 46.18726563 64.63351563 46 64 C44.01508358 64.26676204 44.01508358 64.26676204 42 65 C41.505 66.485 41.505 66.485 41 68 C39.06982422 69.11914062 39.06982422 69.11914062 36.5546875 70.15625 C35.64203125 70.53910156 34.729375 70.92195313 33.7890625 71.31640625 C32.82742187 71.70699219 31.86578125 72.09757812 30.875 72.5 C29.9365625 72.89058594 28.998125 73.28117187 28.03125 73.68359375 C26.18863541 74.45005948 24.34360872 75.21075488 22.49609375 75.96533203 C20.43591355 76.81930735 18.3980488 77.72690689 16.3671875 78.6484375 C12.38029648 80.24874411 8.44236416 81.22950887 4.25 82.125 C3.07171631 82.38265137 3.07171631 82.38265137 1.86962891 82.64550781 C-4.05909073 83.89968346 -9.93867742 84.73298138 -16 85 C-15.40251953 84.31164062 -15.40251953 84.31164062 -14.79296875 83.609375 C-13.18554577 81.74773671 -11.59257647 79.87434 -10 78 C-9.443125 77.360625 -8.88625 76.72125 -8.3125 76.0625 C-6.77392797 73.84762318 -6.77392797 73.84762318 -5.875 70.3125 C-1.94813025 59.54849155 9.66812942 53.58459594 19 48 C20.00675781 47.39671875 21.01351562 46.7934375 22.05078125 46.171875 C23.73177442 45.16960411 25.41724001 44.1747496 27.109375 43.19140625 C29.13545898 42.0120391 29.13545898 42.0120391 31 40 C31.58402133 37.58582128 31.58402133 37.58582128 31 35 C25.92619549 29.61869219 20.03653968 28.88369631 13 28.625 C5.22895195 28.73268196 -1.61171273 30.74566736 -9 33 C-11.31 33.66 -13.62 34.32 -16 35 C-14.35 30.38 -12.7 25.76 -11 21 C3.0625 20.59821429 3.0625 20.59821429 6.9375 22.5 C10.51659402 24.25302564 13.06590474 24.24086298 17 24 C17.12815365 21.6147267 17.12815365 21.6147267 16 19 C8.7858207 13.55255849 0.61337587 14.62368746 -8 15 C-6.7750259 10.8969314 -5.32179479 7.63561861 -2.875 4.125 C-2.33617188 3.34382813 -1.79734375 2.56265625 -1.2421875 1.7578125 C-0.62730469 0.88769531 -0.62730469 0.88769531 0 0 Z " fill="#F4DAA6" transform="translate(75,89)"/>
<path d="M0 0 C4.43940043 4.94585609 4.59794923 9.13219926 4.4375 15.4375 C4.4271875 16.34185791 4.416875 17.24621582 4.40625 18.17797852 C4.19515964 27.24787946 2.99270473 36.15884579 1.65625 45.12109375 C1.12783001 48.78040218 0.75894506 52.29378032 1 56 C2.05310277 57.27003323 2.05310277 57.27003323 4.4375 57.1875 C7.16734675 57.26839983 7.16734675 57.26839983 9 55 C9.46659731 52.27530214 9.83599254 49.61820198 10.125 46.875 C10.21136719 46.12089844 10.29773438 45.36679688 10.38671875 44.58984375 C10.59889261 42.72742873 10.80045763 40.86381069 11 39 C17.9813294 45.9813294 17.43956101 64.02737551 17.5 73.375 C17.30212968 90.28700576 12.00606589 107.61643277 0.12109375 120.16015625 C-4.57982633 124.23774991 -9.77060621 127.64392069 -15 131 C-15.91523438 131.60199219 -16.83046875 132.20398438 -17.7734375 132.82421875 C-18.50820312 133.21222656 -19.24296875 133.60023438 -20 134 C-20.66 133.67 -21.32 133.34 -22 133 C-21.54109375 132.38253906 -21.0821875 131.76507813 -20.609375 131.12890625 C-13.16730471 120.8569731 -9.28212138 113.04659171 -11 100 C-12.84363339 94.4876288 -16.9856875 90.97444054 -21.0625 87 C-28.70713725 79.50303034 -30.14557573 74.01195427 -31.453125 63.47265625 C-32.74026534 55.29931509 -35.94690665 48.68183696 -42 43 C-45.54540401 40.63639733 -46.82165098 40.67858854 -51 41 C-51.99 41.33 -52.98 41.66 -54 42 C-60.45363574 44.02580494 -68.34492224 43.8963406 -74.8671875 42.296875 C-77 41 -77 41 -77.8125 38.375 C-77.874375 37.59125 -77.93625 36.8075 -78 36 C-78.97582031 35.96261719 -79.95164063 35.92523438 -80.95703125 35.88671875 C-82.22933594 35.82097656 -83.50164062 35.75523438 -84.8125 35.6875 C-86.07707031 35.62949219 -87.34164062 35.57148437 -88.64453125 35.51171875 C-92.27078949 34.95870382 -92.66546779 34.52741379 -95 32 C-97.43272763 31.56828673 -97.43272763 31.56828673 -100.125 31.5625 C-105.77046606 31.21670581 -110.03866429 29.6337955 -115 27 C-107.86788069 17.26816333 -96.03151648 11.27991618 -85 7 C-83.989375 6.58621094 -82.97875 6.17242187 -81.9375 5.74609375 C-72.73571904 2.63181175 -63.53779808 2.63246761 -53.9375 2.625 C-52.90184906 2.62200897 -52.90184906 2.62200897 -51.84527588 2.61895752 C-39.24580694 2.62307243 -39.24580694 2.62307243 -33 5 C-35.652451 7.82077672 -38.19067924 9.8837713 -41.546875 11.8046875 C-42.39121094 12.30613281 -43.23554688 12.80757812 -44.10546875 13.32421875 C-45.87675239 14.36291831 -47.65555615 15.38889326 -49.44140625 16.40234375 C-51.80130056 17.81973035 -53.95515434 19.15592522 -56 21 C-56.85866257 24.22305166 -56.85866257 24.22305166 -56 27 C-54.96315941 28.2463474 -54.96315941 28.2463474 -52.71142578 28.24291992 C-49.45614058 27.95127498 -48.20005561 27.08281009 -45.6171875 25.11328125 C-41.42270362 22.02535105 -37.1760947 19.08292476 -32.8203125 16.23046875 C-32.19461365 15.81967072 -31.56891479 15.40887268 -30.92425537 14.98562622 C-29.64174205 14.14434829 -28.35871773 13.30384889 -27.07519531 12.46411133 C-25.10559638 11.17479825 -23.138676 9.88146675 -21.171875 8.58789062 C-19.90901255 7.76017497 -18.64599732 6.93269235 -17.3828125 6.10546875 C-16.80048859 5.7221489 -16.21816467 5.33882904 -15.61819458 4.94389343 C-6.59834472 -0.94262067 -6.59834472 -0.94262067 0 0 Z " fill="#C86E00" transform="translate(195,57)"/>
<path d="M0 0 C1.87000478 1.48020814 3.72511144 2.97949439 5.5625 4.5 C6.83480469 5.52673828 6.83480469 5.52673828 8.1328125 6.57421875 C30.55256209 25.58532303 43.48541777 53.8011068 47.5625 82.5 C47.86570458 86.2968652 47.94382313 90.06689693 47.9375 93.875 C47.93588867 94.90794189 47.93427734 95.94088379 47.93261719 97.00512695 C47.48316065 125.82983212 37.08109185 151.57648883 18.5625 173.5 C17.88574219 174.32371094 17.20898438 175.14742187 16.51171875 175.99609375 C-1.63135621 197.25699146 -31.60206669 212.15915764 -59.4375 214.5 C-91.40039033 216.29201254 -123.38933825 208.60443068 -147.8125 186.875 C-171.52900063 164.90352617 -188.27021781 137.35507569 -190.4375 104.5 C-190.4880957 103.73768066 -190.53869141 102.97536133 -190.59082031 102.18994141 C-192.29496221 71.41117705 -182.32560358 41.37537836 -161.9375 18.1875 C-160.44808518 16.61490669 -158.9480554 15.05229786 -157.4375 13.5 C-156.68082031 12.68144531 -155.92414063 11.86289062 -155.14453125 11.01953125 C-144.28463629 -0.40727503 -131.6749322 -8.00125609 -117.4375 -14.5 C-116.56738281 -14.90992188 -115.69726562 -15.31984375 -114.80078125 -15.7421875 C-107.05857799 -19.13350913 -98.68276165 -20.78384005 -90.4375 -22.5 C-89.509375 -22.69722656 -88.58125 -22.89445312 -87.625 -23.09765625 C-56.41141604 -27.03760619 -25.30918808 -18.52994127 0 0 Z M-159.80566406 18.03173828 C-180.61688659 42.58714322 -190.56590534 73.484772 -188.4375 105.5 C-186.04539574 129.858309 -176.52709426 152.99390774 -160.4375 171.5 C-159.38949219 172.74716797 -159.38949219 172.74716797 -158.3203125 174.01953125 C-140.168177 195.04629319 -116.27558437 206.40624113 -89.4375 211.5 C-88.63505859 211.6757959 -87.83261719 211.8515918 -87.00585938 212.03271484 C-60.11845501 216.9245867 -28.23155726 208.07376831 -5.87817383 192.93066406 C21.86056193 173.26130847 39.36320146 144.71597029 45.17211914 111.34277344 C45.80656678 106.72269323 45.90202815 102.15812012 45.875 97.5 C45.87153564 96.51104736 45.86807129 95.52209473 45.86450195 94.50317383 C45.67887764 81.70740255 44.08182806 68.544725 39.5625 56.5 C39.22605469 55.58605469 38.88960937 54.67210938 38.54296875 53.73046875 C33.72785638 41.44307498 27.21859157 30.45862725 18.5625 20.5 C17.87542969 19.68015625 17.18835938 18.8603125 16.48046875 18.015625 C-2.26354316 -3.73418341 -30.77852679 -18.51149745 -59.4375 -21.5 C-97.39841678 -24.2336946 -134.20509464 -10.62957017 -159.80566406 18.03173828 Z " fill="#5B3100" transform="translate(199.4375,32.5)"/>
<path d="M0 0 C2 2.125 2 2.125 2.75 4.5 C1.37727702 9.30453044 -2.53054574 11.72547791 -6.70849609 14.09326172 C-9.39757592 15.55027923 -12.09353696 16.99434001 -14.78955078 18.43847656 C-20.91689991 21.83545277 -25.77732224 26.03623024 -30.7421875 30.9375 C-33 33.125 -33 33.125 -35 34.125 C-35.4125 33.031875 -35.825 31.93875 -36.25 30.8125 C-37.6627749 27.56835023 -38.78576326 25.82140272 -42 24.125 C-47.03034458 22.46904806 -51.65665073 21.78039908 -56.9375 21.5 C-57.62134766 21.46132812 -58.30519531 21.42265625 -59.00976562 21.3828125 C-60.67279513 21.28977588 -62.33635847 21.20636213 -64 21.125 C-61.68761845 12.87542256 -52.3071572 5.14769044 -45.06933594 1.02539062 C-41.17579911 -0.76281284 -37.15428089 -1.87652402 -33 -2.875 C-32.20207031 -3.11347656 -31.40414062 -3.35195312 -30.58203125 -3.59765625 C-19.91359857 -6.53196105 -9.4022877 -5.87642981 0 0 Z " fill="#CA7002" transform="translate(105,121.875)"/>
<path d="M0 0 C2.09920893 1.53844498 2.88664889 2.41905772 3.38818359 4.98950195 C3.39156738 5.73159912 3.39495117 6.47369629 3.3984375 7.23828125 C3.40423828 8.46901367 3.40423828 8.46901367 3.41015625 9.72460938 C3.39855469 10.57861328 3.38695312 11.43261719 3.375 12.3125 C3.38660156 13.15490234 3.39820313 13.99730469 3.41015625 14.86523438 C3.38149494 20.97487082 2.48877946 25.51122054 -2 30 C-8.25595745 30.79465462 -11.76331699 28.90068887 -16.8125 25.625 C-17.47958984 25.2125 -18.14667969 24.8 -18.83398438 24.375 C-21.44495476 22.74149683 -23.81605805 21.18394195 -26 19 C-25.97701889 14.88063691 -25.32189385 13.33719862 -22.453125 10.33203125 C-21.39818151 9.47620834 -20.32992017 8.63658194 -19.25 7.8125 C-18.7240625 7.38775391 -18.198125 6.96300781 -17.65625 6.52539062 C-11.50068186 1.62683825 -7.84602163 -0.75929242 0 0 Z " fill="#040200" transform="translate(187,71)"/>
<path d="M0 0 C-4.58754584 11.46886459 -13.74276533 17.47883481 -24.59765625 22.55859375 C-38.45301981 28.42843204 -38.45301981 28.42843204 -45 27 C-48.36279128 24.30760441 -51.31649691 21.37111272 -54 18 C-54 17.34 -54 16.68 -54 16 C-53.29834717 15.9179834 -52.59669434 15.8359668 -51.8737793 15.75146484 C-43.29810732 14.55851072 -35.79794552 11.90019622 -27.8125 8.625 C-26.60658203 8.14289063 -25.40066406 7.66078125 -24.15820312 7.1640625 C-18.29257893 4.80628019 -12.48460467 2.38425754 -6.78222656 -0.34716797 C-4.27674493 -1.26492932 -2.45396277 -0.94992107 0 0 Z " fill="#C56D02" transform="translate(126,166)"/>
<path d="M0 0 C4.33860912 0.17436491 8.66031649 0.11746512 13 0 C12 3 12 3 9.66015625 4.65234375 C4.57649358 6.5241299 -0.1849374 6.49143089 -5.5625 6.5625 C-7.60562786 6.59708586 -9.64863808 6.63977439 -11.69140625 6.69140625 C-12.59060791 6.70373291 -13.48980957 6.71605957 -14.41625977 6.72875977 C-17.24759952 7.02599292 -19.39106376 7.89354973 -22 9 C-24.75 9.1875 -24.75 9.1875 -27 9 C-28 8 -28 8 -28.375 5.6875 C-28 3 -28 3 -25.625 0.75 C-18.02987422 -4.31341718 -8.35213653 -2.42971245 0 0 Z " fill="#0F0E0A" transform="translate(137,110)"/>
<path d="M0 0 C9.47444552 3.94889103 9.47444552 3.94889103 11 7 C10.45698242 7.18062988 9.91396484 7.36125977 9.35449219 7.54736328 C-1.14424643 11.06397421 -11.29036643 14.61233747 -21 20 C-19.88029394 12.676865 -15.69749477 7.05236141 -10 2.4375 C-6.45534101 0.04318318 -4.32696981 -0.95193336 0 0 Z " fill="#C16A00" transform="translate(109,44)"/>
<path d="M0 0 C2.33954855 0.28647533 4.67212073 0.63049535 7 1 C11.23361683 1.19658586 14.95492244 1.34835919 19 0 C23.95337583 -0.23967948 27.48141403 -0.25929298 32 2 C27.93029902 6.49809056 23.94790771 8.22634613 18 9 C15.64775383 9.11377569 13.29246131 9.17468737 10.9375 9.1875 C9.75027344 9.20167969 8.56304687 9.21585938 7.33984375 9.23046875 C4.07061254 9.00487268 1.87491205 8.54843608 -1 7 C-1.9375 4.5 -1.9375 4.5 -2 2 C-1.34 1.34 -0.68 0.68 0 0 Z " fill="#0A0602" transform="translate(119,91)"/>
<path d="M0 0 C14.44745395 -0.4127844 14.44745395 -0.4127844 21 3 C22.98821313 3.39764263 24.98732362 3.75455166 27 4 C27 4.99 27 5.98 27 7 C25.72769531 7.14695312 25.72769531 7.14695312 24.4296875 7.296875 C15.58427162 8.42442252 7.53132405 10.40008462 -1 13 C-2.32 13.33 -3.64 13.66 -5 14 C-3.35 9.38 -1.7 4.76 0 0 Z " fill="#E6CD9B" transform="translate(64,110)"/>
<path d="M0 0 C1.44977894 2.34112451 2.04314411 3.5796929 1.7578125 6.359375 C1.54898437 7.14828125 1.34015625 7.9371875 1.125 8.75 C0.92132813 9.54921875 0.71765625 10.3484375 0.5078125 11.171875 C0.34023437 11.77515625 0.17265625 12.3784375 0 13 C-2 10 -2 10 -1.7578125 7.51953125 C-1.54898437 6.62621094 -1.34015625 5.73289062 -1.125 4.8125 C-0.92132813 3.91144531 -0.71765625 3.01039062 -0.5078125 2.08203125 C-0.34023437 1.39496094 -0.17265625 0.70789063 0 0 Z " fill="#6B3A00" transform="translate(15,89)"/>
<path d="M0 0 C0.33 0 0.66 0 1 0 C1.22226864 1.76913824 1.42733873 3.54044371 1.625 5.3125 C1.74101562 6.29863281 1.85703125 7.28476563 1.9765625 8.30078125 C2 11 2 11 0 14 C-1.33257403 4.58997722 -1.33257403 4.58997722 0 0 Z " fill="#6E3C00" transform="translate(12,143)"/>
<path d="M0 0 C-3.5486135 2.36574234 -4.5764525 2.10865265 -8.6875 1.625 C-10.17830078 1.45871094 -10.17830078 1.45871094 -11.69921875 1.2890625 C-12.45847656 1.19367187 -13.21773437 1.09828125 -14 1 C-14 0.67 -14 0.34 -14 0 C-9.20699867 -1.39151652 -4.84864218 -0.68662689 0 0 Z " fill="#6E3C00" transform="translate(157,12)"/>
<path d="M0 0 C-0.66 0.66 -1.32 1.32 -2 2 C-4.1640625 1.9765625 -4.1640625 1.9765625 -6.625 1.625 C-7.44226563 1.51414063 -8.25953125 1.40328125 -9.1015625 1.2890625 C-9.72804688 1.19367188 -10.35453125 1.09828125 -11 1 C-6.8204355 -1.78637633 -4.85331323 -0.79562512 0 0 Z " fill="#6A3900" transform="translate(110,243)"/>
<path d="M0 0 C0.66 1.32 1.32 2.64 2 4 C0.68 5.65 -0.64 7.3 -2 9 C-3 6 -3 6 -1.5625 2.8125 C-1.046875 1.884375 -0.53125 0.95625 0 0 Z " fill="#683900" transform="translate(234,176)"/>
</svg>
