<?xml version="1.0" encoding="UTF-8"?>
<svg version="1.1" xmlns="http://www.w3.org/2000/svg" width="128" height="128">
<path d="M0 0 C0.92039062 0.40089844 1.84078125 0.80179687 2.7890625 1.21484375 C18.52638997 8.86185498 29.67980623 23.038035 35.82470703 39.16430664 C38.14121496 46.01794161 38.54124603 52.48742358 38.5 59.6875 C38.49500488 60.8321875 38.49000977 61.976875 38.48486328 63.15625 C38.11259473 81.29214683 30.83844245 95.28660732 18 108 C3.02874971 122.0230711 -12.96896517 124.61466211 -32.671875 124.3125 C-39.73700069 124.0644558 -45.54357181 123.01994222 -52 120 C-52.92039063 119.59910156 -53.84078125 119.19820313 -54.7890625 118.78515625 C-69.72561652 111.52725324 -80.95982193 98.19261861 -86.9921875 82.921875 C-87.32476562 81.95765625 -87.65734375 80.9934375 -88 80 C-88.54720703 78.47632812 -88.54720703 78.47632812 -89.10546875 76.921875 C-93.69563065 60.27912958 -90.4001926 41.50810163 -82.25 26.6875 C-72.66171024 11.93816652 -58.6941239 0.44704188 -41.34765625 -3.62060547 C-28.11558373 -5.75898325 -12.28364062 -5.74557384 0 0 Z " fill="#D67600" transform="translate(90,4)"/>
<path d="M0 0 C2.11328125 1.328125 2.11328125 1.328125 4.1875 2.9375 C9.27115976 6.79781917 14.12293552 6.75742311 20.3515625 6.89453125 C24 7 24 7 27.7734375 7.63671875 C31.14688134 8.3674144 31.14688134 8.3674144 34 6 C37.375 5.5625 37.375 5.5625 41 6 C45.83357533 9.80044473 47.21602032 13.53600675 48.6875 19.25 C48.88666016 19.96285156 49.08582031 20.67570312 49.29101562 21.41015625 C49.89267372 23.59979719 50.45239797 25.79625938 51 28 C51.18908936 28.73436279 51.37817871 29.46872559 51.57299805 30.2253418 C54.36830026 41.72884437 54.91136997 54.70636619 49.54296875 65.48828125 C42.32468964 77.23854319 32.71189971 82.25333329 19.83984375 85.8984375 C17.66525 86.52227823 15.49885388 87.18671614 13.37890625 87.9765625 C5.18261603 91.01643444 -6.33893757 92.22730325 -14.62109375 88.96875 C-16.6958389 87.46591649 -18.29597973 85.91315003 -20 84 C-26.62366557 76.45640055 -26.62366557 76.45640055 -36 74 C-39.84809893 71.55120977 -41.93472741 69.03219886 -44 65 C-44.87242326 60.09684603 -45.0607702 55.1568994 -42.828125 50.6171875 C-40.6302548 47.63760058 -38.21535972 45.19602402 -35.4765625 42.703125 C-32.68591321 39.65717971 -31.52577644 37.03443254 -30.0625 33.1875 C-28.0717988 28.16523783 -25.81249659 24.14550624 -22.36328125 19.9921875 C-20.70775179 17.57293241 -19.95062457 15.22658906 -19.0625 12.4375 C-15.88964826 3.13910184 -10.30225538 -2.61948819 0 0 Z " fill="#0D0802" transform="translate(58,18)"/>
<path d="M0 0 C0.92039062 0.40089844 1.84078125 0.80179687 2.7890625 1.21484375 C18.52638997 8.86185498 29.67980623 23.038035 35.82470703 39.16430664 C38.14121496 46.01794161 38.54124603 52.48742358 38.5 59.6875 C38.49500488 60.8321875 38.49000977 61.976875 38.48486328 63.15625 C38.11259473 81.29214683 30.83844245 95.28660732 18 108 C3.02874971 122.0230711 -12.96896517 124.61466211 -32.671875 124.3125 C-39.73700069 124.0644558 -45.54357181 123.01994222 -52 120 C-52.92039063 119.59910156 -53.84078125 119.19820313 -54.7890625 118.78515625 C-69.72561652 111.52725324 -80.95982193 98.19261861 -86.9921875 82.921875 C-87.32476562 81.95765625 -87.65734375 80.9934375 -88 80 C-88.54720703 78.47632812 -88.54720703 78.47632812 -89.10546875 76.921875 C-93.69563065 60.27912958 -90.4001926 41.50810163 -82.25 26.6875 C-72.66171024 11.93816652 -58.6941239 0.44704188 -41.34765625 -3.62060547 C-28.11558373 -5.75898325 -12.28364062 -5.74557384 0 0 Z M-71 22 C-82.31265222 36.38627848 -85.53813973 52.86031035 -83.7265625 70.69140625 C-83.29964151 72.87836945 -82.72750266 74.89367032 -82 77 C-81.52240234 78.39412109 -81.52240234 78.39412109 -81.03515625 79.81640625 C-74.69921134 96.52026102 -63.71015 106.75782616 -47.96484375 114.3359375 C-35.83671268 119.70517773 -20.45965071 119.89064232 -7.828125 116.09765625 C8.52059824 109.7523645 20.23495316 99.2313985 27.8125 83.4375 C33.68486462 69.54858499 34.00760523 53.2716749 29 39 C21.54577018 21.48255992 9.16900166 11.13955594 -8.078125 3.9453125 C-30.92601228 -3.44665103 -55.07001412 4.87898714 -71 22 Z " fill="#BB5F00" transform="translate(90,4)"/>
<path d="M0 0 C1.8359375 0.3359375 1.8359375 0.3359375 4 1 C5.53765027 1.23615789 7.07987035 1.44413198 8.625 1.625 C9.40101562 1.72039063 10.17703125 1.81578125 10.9765625 1.9140625 C13.07043416 2.16676785 13.07043416 2.16676785 15 1 C16.99960012 0.960008 19.00047242 0.95653201 21 1 C21 1.99 21 2.98 21 4 C22.89575251 4.02721176 24.79161979 4.04649136 26.6875 4.0625 C28.27111328 4.07990234 28.27111328 4.07990234 29.88671875 4.09765625 C32.72410262 4.00865425 35.2438919 3.64939838 38 3 C42.23251449 7.13845861 44.21512085 9.89731122 45.3125 15.75 C46.61095695 22.15411793 49.64249979 25.70879165 54.13671875 30.33203125 C56.5657188 33.81003342 56.48318423 35.8342952 56 40 C55.1171875 42.51171875 55.1171875 42.51171875 53.875 44.6875 C53.48054688 45.41324219 53.08609375 46.13898438 52.6796875 46.88671875 C47.88706396 52.9165079 41.47318589 54.20410854 34.3125 55.75 C33.38244141 55.97042969 32.45238281 56.19085938 31.49414062 56.41796875 C23.87791326 58.11750112 15.60953053 59.83642781 8.4375 56.1875 C6 54 6 54 4 51 C5.155 50.7525 6.31 50.505 7.5 50.25 C15.74506815 48.13774756 20.91162646 44.86159462 26 38 C24.31192092 33.76915097 24.31192092 33.76915097 21 31 C21 31.99 21 32.98 21 34 C18.02740128 35.16338785 15.04597067 36.30231496 12.0625 37.4375 C11.23169922 37.76298828 10.40089844 38.08847656 9.54492188 38.42382812 C3.96294236 40.5306453 -1.04531462 41.57337774 -7 42 C-6.401875 41.113125 -5.80375 40.22625 -5.1875 39.3125 C-3.0482064 36.19308334 -3.0482064 36.19308334 -1.6875 33.5 C2.09538756 27.89572213 7.61701997 24.41935554 13.49609375 21.2734375 C14.24052734 20.64308594 14.24052734 20.64308594 15 20 C15 18.68 15 17.36 15 16 C11.67066298 14.89022099 9.12771692 14.86698463 5.625 14.875 C4.50351562 14.87242188 3.38203125 14.86984375 2.2265625 14.8671875 C-0.64264622 14.98529052 -3.21208229 15.34217672 -6 16 C-5.67 14.02 -5.34 12.04 -5 10 C0.19209404 9.78807779 4.126739 10.4087311 9 12 C8.67 11.01 8.34 10.02 8 9 C5.70370006 7.85185003 3.92301914 7.69230191 1.375 7.4375 C0.55773438 7.35371094 -0.25953125 7.26992188 -1.1015625 7.18359375 C-1.72804688 7.12300781 -2.35453125 7.06242187 -3 7 C-2.25 2.25 -2.25 2.25 0 0 Z " fill="#F2D8A4" transform="translate(37,45)"/>
<path d="M0 0 C1.86445004 1.86445004 1.13235666 4.50471413 1.13867188 6.98291016 C1.13416016 7.7929248 1.12964844 8.60293945 1.125 9.4375 C1.12306641 10.2526709 1.12113281 11.0678418 1.11914062 11.90771484 C1.07794106 17.66306512 0.73711847 23.28733188 0 29 C0.99 28.67 1.98 28.34 3 28 C3.80212628 26.12612784 3.80212628 26.12612784 4.1875 23.9375 C4.34605469 23.20402344 4.50460938 22.47054687 4.66796875 21.71484375 C4.77753906 21.14894531 4.88710937 20.58304688 5 20 C9.33283162 27.79909692 9.20778845 38.31493209 7.38671875 46.88671875 C4.51503561 54.94514237 -1.2909577 62.15182897 -9 66 C-9.99 65.505 -9.99 65.505 -11 65 C-10.6390625 64.43152344 -10.278125 63.86304688 -9.90625 63.27734375 C-9.4421875 62.50519531 -8.978125 61.73304687 -8.5 60.9375 C-8.0359375 60.18339844 -7.571875 59.42929688 -7.09375 58.65234375 C-5.6544169 55.16196098 -5.54628252 52.74629108 -6 49 C-7.82055239 46.24080058 -7.82055239 46.24080058 -10.3125 43.8125 C-14.66748735 38.88001822 -16.11266999 35.06754677 -17.31640625 28.68359375 C-18.31503023 24.76328132 -20.13688461 22.7857339 -23 20 C-23.928125 20.2475 -23.928125 20.2475 -24.875 20.5 C-29.57410225 21.25185636 -35.63939756 22.18030122 -40 20 C-40 19.01 -40 18.02 -40 17 C-42.31 17.33 -44.62 17.66 -47 18 C-47 17.01 -47 16.02 -47 15 C-50.63 14.67 -54.26 14.34 -58 14 C-56.38212389 9.14637168 -52.27411022 7.50686709 -48 5 C-47.31292969 4.57847656 -46.62585937 4.15695313 -45.91796875 3.72265625 C-37.12997041 -0.72676273 -26.5739027 0.65647051 -17 1 C-17 1.66 -17 2.32 -17 3 C-19.79299773 4.8816462 -22.68679298 6.54669842 -25.59375 8.24609375 C-26.3878125 8.82488281 -27.181875 9.40367188 -28 10 C-28 10.99 -28 11.98 -28 13 C-24.71850959 12.37891657 -22.58787883 11.21378991 -19.8828125 9.27734375 C-19.11066406 8.73916016 -18.33851562 8.20097656 -17.54296875 7.64648438 C-15.93434606 6.50953377 -14.33013617 5.36631319 -12.73046875 4.21679688 C-5.31211567 -0.92420821 -5.31211567 -0.92420821 0 0 Z " fill="#C46C01" transform="translate(98,29)"/>
<path d="M0 0 C1.11503906 -0.01417969 2.23007812 -0.02835938 3.37890625 -0.04296875 C6.32241377 0.17882811 7.9581192 0.6537999 10.4375 2.1875 C10.26171875 4.46875 10.26171875 4.46875 9.4375 7.1875 C7.14453125 9.03125 7.14453125 9.03125 4.25 10.6875 C-0.05799504 13.25098143 -3.82709276 15.85592057 -7.5625 19.1875 C-7.85125 18.548125 -8.14 17.90875 -8.4375 17.25 C-9.39073451 15.03543921 -9.39073451 15.03543921 -11.5625 14.1875 C-13.43306791 13.9599985 -15.30935958 13.77787189 -17.1875 13.625 C-18.19039062 13.54121094 -19.19328125 13.45742187 -20.2265625 13.37109375 C-21.38285156 13.28021484 -21.38285156 13.28021484 -22.5625 13.1875 C-20.4457669 9.17684781 -18.17324516 6.89555887 -14.5625 4.1875 C-14.0675 3.630625 -13.5725 3.07375 -13.0625 2.5 C-9.61868297 -0.5133399 -4.34108059 0.0251511 0 0 Z " fill="#C76F04" transform="translate(42.5625,58.8125)"/>
<path d="M0 0 C0.05410687 1.77049689 0.09284119 3.54146849 0.125 5.3125 C0.14820312 6.29863281 0.17140625 7.28476562 0.1953125 8.30078125 C0 11 0 11 -2 14 C-6.77576339 13.5317879 -10.04476345 12.75668002 -14 10 C-14 7.02949531 -13.41100884 5.41869125 -11.328125 3.296875 C-5.27970864 -1.56914418 -5.27970864 -1.56914418 0 0 Z " fill="#090400" transform="translate(95,36)"/>
<path d="M0 0 C-4.47204918 6.00196074 -8.89989359 9.47227224 -16 12 C-21.9375765 12.75397797 -21.9375765 12.75397797 -24.9375 10.625 C-26 9 -26 9 -26 7 C-25.33355469 6.84144531 -24.66710938 6.68289062 -23.98046875 6.51953125 C-17.71531385 4.933527 -12.16396032 2.83955551 -6.41015625 -0.109375 C-3.74080861 -1.09577899 -2.61752856 -0.99599695 0 0 Z " fill="#C56E03" transform="translate(63,84)"/>
<path d="M0 0 C5.42577894 0.01656726 10.62801602 0.33754172 15.99609375 1.1328125 C14.39661699 3.03315903 13.46775766 4.03048287 11.00317383 4.56518555 C10.26478271 4.59136963 9.5263916 4.61755371 8.765625 4.64453125 C7.96318359 4.67998047 7.16074219 4.71542969 6.33398438 4.75195312 C5.50060547 4.77451172 4.66722656 4.79707031 3.80859375 4.8203125 C2.96361328 4.85447266 2.11863281 4.88863281 1.24804688 4.92382812 C-0.83547274 5.00622721 -2.91966841 5.07119895 -5.00390625 5.1328125 C-2.60378931 0.17257083 -2.60378931 0.17257083 0 0 Z " fill="#201D16" transform="translate(59.00390625,53.8671875)"/>
<path d="M0 0 C2.92352327 0.9533228 3.86385722 1.74190329 5.875 3.9375 C5.05515625 4.20304687 4.2353125 4.46859375 3.390625 4.7421875 C1.77414063 5.27199219 1.77414063 5.27199219 0.125 5.8125 C-0.94234375 6.16054688 -2.0096875 6.50859375 -3.109375 6.8671875 C-5.58049261 7.7442422 -7.8223692 8.69676205 -10.125 9.9375 C-9.23354636 6.37168543 -8.3888501 4.22333761 -5.875 1.5 C-3.125 -0.0625 -3.125 -0.0625 0 0 Z " fill="#B66400" transform="translate(54.125,22.0625)"/>
<path d="M0 0 C5.8022175 -0.36263859 9.63999211 0.74315457 15 3 C15 3.33 15 3.66 15 4 C14.26394531 4.06058594 13.52789062 4.12117188 12.76953125 4.18359375 C11.79371094 4.26738281 10.81789063 4.35117187 9.8125 4.4375 C8.84957031 4.51871094 7.88664062 4.59992187 6.89453125 4.68359375 C4.21350398 4.97666151 1.6337014 5.42703754 -1 6 C-0.67 4.02 -0.34 2.04 0 0 Z " fill="#E2C590" transform="translate(32,55)"/>
<path d="M0 0 C5.28 0 10.56 0 16 0 C16 0.66 16 1.32 16 2 C11.13948404 4.59227518 6.34728867 4.18689553 1 4 C0.67 2.68 0.34 1.36 0 0 Z " fill="#140E06" transform="translate(59,46)"/>
</svg>
