<?xml version="1.0" encoding="UTF-8"?>
<svg version="1.1" xmlns="http://www.w3.org/2000/svg" width="64" height="64">
<path d="M0 0 C0.88333008 0.01168213 1.76666016 0.02336426 2.67675781 0.03540039 C12.16505746 0.35699311 17.90248247 2.96307725 24.5 9.8125 C31.98943327 19.10606801 33.43113142 27.64609675 32.43847656 39.40332031 C31.25523147 47.55333561 26.64773566 53.90723919 20.4453125 59.0625 C13.56937202 63.50755243 8.36962863 65.21240234 0.125 65.0625 C-1.15117188 65.08570312 -1.15117188 65.08570312 -2.453125 65.109375 C-11.16339867 65.05593774 -17.67625863 61.62134813 -23.9765625 55.70703125 C-31.290176 47.44535674 -33.07037238 38.62675696 -32.453125 27.91796875 C-31.51291392 18.83782102 -27.13516507 11.83068915 -20.1953125 6.0625 C-13.40159237 1.67060012 -8.15610413 -0.14348414 0 0 Z " fill="#D47500" transform="translate(31.875,-0.5625)"/>
<path d="M0 0 C-3.75 3 -3.75 3 -6 3 C-5.67 3.66 -5.34 4.32 -5 5 C-3.94232422 4.50886719 -3.94232422 4.50886719 -2.86328125 4.0078125 C0.23867167 2.91599278 2.54006053 2.79614604 5.8125 2.875 C7.27623047 2.90207031 7.27623047 2.90207031 8.76953125 2.9296875 C9.50558594 2.95289063 10.24164063 2.97609375 11 3 C9.35 4.98 7.7 6.96 6 9 C6.66386719 8.566875 7.32773437 8.13375 8.01171875 7.6875 C9.33623047 6.8521875 9.33623047 6.8521875 10.6875 6 C11.55761719 5.443125 12.42773438 4.88625 13.32421875 4.3125 C16 3 16 3 21 3 C20.67 7.62 20.34 12.24 20 17 C20.66 17 21.32 17 22 17 C22.33 15.68 22.66 14.36 23 13 C24.84735286 16.69470572 24.34245372 20.95904606 24 25 C22.30702381 29.72251254 19.97434545 32.93644205 16 36 C9.21951497 38.77888731 1.28949049 40.31133691 -6 39 C-6.66 38.01 -7.32 37.02 -8 36 C-7.44570313 35.78085937 -6.89140625 35.56171875 -6.3203125 35.3359375 C-1.35136465 33.2212507 -1.35136465 33.2212507 1.5 28.75 C1.665 27.8425 1.83 26.935 2 26 C1.25556641 26.41572266 1.25556641 26.41572266 0.49609375 26.83984375 C-4.09318168 29.28687676 -7.81559721 30.56796643 -13 31 C-13 29.02 -13 27.04 -13 25 C-14.98 24.67 -16.96 24.34 -19 24 C-18.01 22.9790625 -18.01 22.9790625 -17 21.9375 C-14.67170526 19.11010331 -14.67170526 19.11010331 -15 15.5 C-15 11.13802864 -13.8096447 10.21102251 -11 7 C-10.46426026 5.76489558 -9.96482499 4.51350217 -9.5 3.25 C-8 0 -8 0 -6.0625 -1 C-3.87002453 -1 -2.08369065 -0.66975771 0 0 Z " fill="#C26C03" transform="translate(29,12)"/>
<path d="M0 0 C0.88333008 0.01168213 1.76666016 0.02336426 2.67675781 0.03540039 C12.16505746 0.35699311 17.90248247 2.96307725 24.5 9.8125 C31.98943327 19.10606801 33.43113142 27.64609675 32.43847656 39.40332031 C31.25523147 47.55333561 26.64773566 53.90723919 20.4453125 59.0625 C13.56937202 63.50755243 8.36962863 65.21240234 0.125 65.0625 C-1.15117188 65.08570312 -1.15117188 65.08570312 -2.453125 65.109375 C-11.16339867 65.05593774 -17.67625863 61.62134813 -23.9765625 55.70703125 C-31.290176 47.44535674 -33.07037238 38.62675696 -32.453125 27.91796875 C-31.51291392 18.83782102 -27.13516507 11.83068915 -20.1953125 6.0625 C-13.40159237 1.67060012 -8.15610413 -0.14348414 0 0 Z M-20.625 11.8125 C-21.42164063 12.59367188 -21.42164063 12.59367188 -22.234375 13.390625 C-26.86765968 19.52421139 -28.53153683 24.91828468 -28.375 32.5625 C-28.39046875 33.31789063 -28.4059375 34.07328125 -28.421875 34.8515625 C-28.37592416 41.53740929 -26.23753386 46.43495518 -22.234375 51.734375 C-16.15657571 57.69415877 -9.41886042 61.62056951 -0.75 61.8125 C8.83059505 61.60865755 15.09278606 58.63000247 21.98828125 51.97265625 C27.73943769 45.48552001 29.50767556 38.48701665 29.32421875 29.94921875 C28.56454637 20.84804567 23.99762804 14.44027199 17.125 8.5625 C11.5588406 4.89937991 6.71344809 3.92758297 0.125 4.0625 C-0.63039063 4.04703125 -1.38578125 4.0315625 -2.1640625 4.015625 C-9.39930765 4.06535177 -15.51514188 6.60145657 -20.625 11.8125 Z " fill="#BF6200" transform="translate(31.875,-0.5625)"/>
<path d="M0 0 C6.875 0.875 6.875 0.875 8 2 C10.07819736 2.23775987 12.16344388 2.41513113 14.25 2.5625 C15.95929687 2.68818359 15.95929687 2.68818359 17.703125 2.81640625 C20.91012968 3.08255849 20.91012968 3.08255849 23.734375 2.71484375 C26 3 26 3 27.70703125 5.140625 C30.91866641 12.24309309 33.5177118 21.17794688 32 29 C29.49074159 35.41254927 25.19486872 39.21863037 19 42 C12.51476167 44.40769327 4.89413319 46.6910138 -2 45 C-4.07990009 43.42431811 -5.64548048 41.73700519 -7.33203125 39.75 C-9.8609582 37.0966996 -12.60922836 36.28849322 -16 35 C-17.56935594 31.86128812 -17.35201103 29.46144178 -17 26 C-14.5625 23.25 -14.5625 23.25 -12 21 C-11.67 20.01 -11.34 19.02 -11 18 C-10.34 18 -9.68 18 -9 18 C-9.49831724 21.68754757 -10.10067643 23.60490662 -13 26 C-11.02 26.66 -9.04 27.32 -7 28 C-7 29.65 -7 31.3 -7 33 C-2.16371695 32.00956295 2.47618873 31.04301154 7 29 C7.3125 31.25 7.3125 31.25 7 34 C4.28213525 36.64236851 1.45561452 38.46417132 -2 40 C-0.3389368 41.6610632 1.59194028 41.21119445 3.875 41.25 C10.51991661 41.15494918 17.68676863 40.75343196 22.98828125 36.34765625 C26.82877076 32.01221105 28.13826628 28.6465036 28.0625 22.8125 C28.05347656 21.91144531 28.04445312 21.01039062 28.03515625 20.08203125 C28.02355469 19.39496094 28.01195312 18.70789063 28 18 C27.67 18.66 27.34 19.32 27 20 C26.34 20 25.68 20 25 20 C25.33 15.38 25.66 10.76 26 6 C20.84240159 7.23782362 17.40451719 8.92708103 13 12 C12.34 12 11.68 12 11 12 C12 9 12 9 15 7 C9.26157749 6.79586639 4.39460953 6.72858546 -1 9 C-1 8.01 -1 7.02 -1 6 C1.5 4.3125 1.5 4.3125 4 3 C2.02 3 0.04 3 -2 3 C-1.34 2.01 -0.68 1.02 0 0 Z " fill="#1C0F00" transform="translate(24,9)"/>
<path d="M0 0 C6.40629424 -0.20852314 11.92972642 -0.1583195 18 2 C17.67 2.66 17.34 3.32 17 4 C13.5 4.5 13.5 4.5 10 5 C9.67 5.66 9.34 6.32 9 7 C9.75925781 6.855625 10.51851562 6.71125 11.30078125 6.5625 C12.79158203 6.2840625 12.79158203 6.2840625 14.3125 6 C15.29863281 5.814375 16.28476562 5.62875 17.30078125 5.4375 C20 5 20 5 23 5 C23.268125 6.093125 23.53625 7.18625 23.8125 8.3125 C24.64975389 11.91011936 24.64975389 11.91011936 26.625 13.5625 C28 15 28 15 28.5 17.875 C27.8208847 22.11947062 26.38419725 23.40784891 23 26 C17.4272642 28.34054904 10.98683443 28.92334262 5 28 C4.34 27.01 3.68 26.02 3 25 C3.55429687 24.78085937 4.10859375 24.56171875 4.6796875 24.3359375 C9.64863535 22.2212507 9.64863535 22.2212507 12.5 17.75 C12.665 16.8425 12.83 15.935 13 15 C12.50371094 15.27714844 12.00742187 15.55429687 11.49609375 15.83984375 C6.90681832 18.28687676 3.18440279 19.56796643 -2 20 C0.10298339 14.85937393 2.36155124 12.92423944 7 10 C7.33 9.01 7.66 8.02 8 7 C4.7 7 1.4 7 -2 7 C-2 6.34 -2 5.68 -2 5 C-0.02 4.67 1.96 4.34 4 4 C2.35 3.67 0.7 3.34 -1 3 C-0.67 2.01 -0.34 1.02 0 0 Z " fill="#F2D8A3" transform="translate(18,23)"/>
<path d="M0 0 C0.66 0 1.32 0 2 0 C1.50168276 3.68754757 0.89932357 5.60490662 -2 8 C-0.02 8.66 1.96 9.32 4 10 C4 11.65 4 13.3 4 15 C8.83628305 14.00956295 13.47618873 13.04301154 18 11 C18.3125 13.25 18.3125 13.25 18 16 C15.28213525 18.64236851 12.45561452 20.46417132 9 22 C10.87824891 23.87824891 14.03935276 23.39102397 16.5625 23.5625 C17.76003906 23.64628906 18.95757813 23.73007812 20.19140625 23.81640625 C21.58166016 23.90728516 21.58166016 23.90728516 23 24 C22.67 24.66 22.34 25.32 22 26 C17.61196867 27.46267711 13.56877298 27.87190324 9 27 C6.89150236 25.43644211 5.36376272 23.74789504 3.66796875 21.75 C1.1390418 19.0966996 -1.60922836 18.28849322 -5 17 C-6.56935594 13.86128812 -6.35201103 11.46144178 -6 8 C-3.5625 5.25 -3.5625 5.25 -1 3 C-0.67 2.01 -0.34 1.02 0 0 Z " fill="#130D05" transform="translate(13,27)"/>
<path d="M0 0 C-3.75 3 -3.75 3 -6 3 C-6.144375 3.78375 -6.28875 4.5675 -6.4375 5.375 C-7 8 -7 8 -8 10 C-6.35 10 -4.7 10 -3 10 C-3.33 10.66 -3.66 11.32 -4 12 C-6.31 12 -8.62 12 -11 12 C-11.33 12.66 -11.66 13.32 -12 14 C-10.35 14 -8.7 14 -7 14 C-6.67 14.66 -6.34 15.32 -6 16 C-8.31 16 -10.62 16 -13 16 C-13 16.66 -13 17.32 -13 18 C-9.7 18 -6.4 18 -3 18 C-4.24553344 22.98213375 -5.76202827 23.40532343 -10 26 C-10.66 26.66 -11.32 27.32 -12 28 C-12.33 27.01 -12.66 26.02 -13 25 C-14.98 24.67 -16.96 24.34 -19 24 C-18.01 22.9790625 -18.01 22.9790625 -17 21.9375 C-14.67170526 19.11010331 -14.67170526 19.11010331 -15 15.5 C-15 11.13802864 -13.8096447 10.21102251 -11 7 C-10.46426026 5.76489558 -9.96482499 4.51350217 -9.5 3.25 C-8 0 -8 0 -6.0625 -1 C-3.87002453 -1 -2.08369065 -0.66975771 0 0 Z " fill="#372308" transform="translate(29,12)"/>
<path d="M0 0 C-1.65 1.98 -3.3 3.96 -5 6 C-4.34 6 -3.68 6 -3 6 C0 10.38461538 0 10.38461538 0 13 C-1.60341555 13.33692785 -3.20776555 13.66941093 -4.8125 14 C-5.70582031 14.185625 -6.59914063 14.37125 -7.51953125 14.5625 C-10 15 -10 15 -13 15 C-12.67 14.01 -12.34 13.02 -12 12 C-8.535 11.505 -8.535 11.505 -5 11 C-9.62 9.68 -14.24 8.36 -19 7 C-14.92601476 -1.14797048 -8.13852023 -0.39099652 0 0 Z " fill="#AA5E02" transform="translate(40,15)"/>
<path d="M0 0 C2.45302518 4.37406899 2.77013738 8.07112075 2 13 C-0.45334258 19.39010161 -4.85102686 23.22340701 -11 26 C-13.67195733 26.86941031 -16.23403053 27.45668457 -19 28 C-19.33 27.01 -19.66 26.02 -20 25 C-19.27554688 24.86464844 -18.55109375 24.72929688 -17.8046875 24.58984375 C-12.17962331 23.33732946 -7.69900258 22.17988494 -4.1484375 17.44921875 C-1.59798135 12.00998063 -0.86589117 5.90173189 0 0 Z " fill="#1B1105" transform="translate(54,25)"/>
<path d="M0 0 C1.73515159 0.2773492 3.46728247 0.57899582 5.1875 0.9375 C4.59105891 4.45723879 4.36148079 4.81164155 1.25 7.0625 C0.239375 7.68125 -0.77125 8.3 -1.8125 8.9375 C-2.4725 9.5975 -3.1325 10.2575 -3.8125 10.9375 C-4.1425 9.9475 -4.4725 8.9575 -4.8125 7.9375 C-7.7825 7.4425 -7.7825 7.4425 -10.8125 6.9375 C-7.91953315 1.25132378 -6.58686128 -0.66208142 0 0 Z " fill="#C26E07" transform="translate(20.8125,29.0625)"/>
<path d="M0 0 C6.40629424 -0.20852314 11.92972642 -0.1583195 18 2 C17.67 2.66 17.34 3.32 17 4 C14.67843403 4.40729228 12.3431213 4.74438677 10 5 C9.67 6.65 9.34 8.3 9 10 C8.67 9.01 8.34 8.02 8 7 C4.7 7 1.4 7 -2 7 C-2 6.34 -2 5.68 -2 5 C-0.02 4.67 1.96 4.34 4 4 C2.35 3.67 0.7 3.34 -1 3 C-0.67 2.01 -0.34 1.02 0 0 Z " fill="#E2C691" transform="translate(18,23)"/>
<path d="M0 0 C6.75 0.75 6.75 0.75 9 3 C10.98821313 3.39764263 12.98944339 3.73775349 15 4 C15 4.33 15 4.66 15 5 C14.34773438 5.12117187 13.69546875 5.24234375 13.0234375 5.3671875 C8.21353658 6.28943989 3.60974535 7.30167277 -1 9 C-1 8.01 -1 7.02 -1 6 C1.5 4.3125 1.5 4.3125 4 3 C2.02 3 0.04 3 -2 3 C-1.34 2.01 -0.68 1.02 0 0 Z " fill="#160C00" transform="translate(24,9)"/>
<path d="M0 0 C0 1.98 0 3.96 0 6 C-2.3125 6.625 -2.3125 6.625 -5 7 C-5.99 6.34 -6.98 5.68 -8 5 C-6.44843568 0.34530705 -4.78780941 0 0 0 Z " fill="#1B0E00" transform="translate(48,18)"/>
<path d="M0 0 C1.32 0.66 2.64 1.32 4 2 C4 2.66 4 3.32 4 4 C2.39658445 4.33692785 0.79223445 4.66941093 -0.8125 5 C-1.70582031 5.185625 -2.59914063 5.37125 -3.51953125 5.5625 C-6 6 -6 6 -9 6 C-8.67 5.01 -8.34 4.02 -8 3 C-6.865625 2.87625 -5.73125 2.7525 -4.5625 2.625 C-3.386875 2.41875 -2.21125 2.2125 -1 2 C-0.67 1.34 -0.34 0.68 0 0 Z " fill="#CFB686" transform="translate(36,24)"/>
<path d="M0 0 C-3.5087188 3.09592835 -6.49197399 4.74194623 -11 6 C-11.33 4.68 -11.66 3.36 -12 2 C-11.05125 1.690625 -10.1025 1.38125 -9.125 1.0625 C-3.1875 -0.95625 -3.1875 -0.95625 0 0 Z " fill="#BB6A07" transform="translate(31,43)"/>
<path d="M0 0 C0.125 3.375 0.125 3.375 0 7 C-0.66 7.66 -1.32 8.32 -2 9 C-2 7.02 -2 5.04 -2 3 C-3.98 3.66 -5.96 4.32 -8 5 C-7.625 3.0625 -7.625 3.0625 -7 1 C-4.53721199 -0.231394 -2.7204945 -0.07159196 0 0 Z " fill="#AC5E00" transform="translate(50,15)"/>
<path d="M0 0 C0 1.32 0 2.64 0 4 C-4.455 5.485 -4.455 5.485 -9 7 C-9 6.34 -9 5.68 -9 5 C-9.66 4.67 -10.32 4.34 -11 4 C-9.5437455 3.32880451 -8.08492133 2.66318193 -6.625 2 C-5.81289063 1.62875 -5.00078125 1.2575 -4.1640625 0.875 C-2 0 -2 0 0 0 Z " fill="#302516" transform="translate(31,38)"/>
<path d="M0 0 C0.66 0 1.32 0 2 0 C1.64950425 3.24208567 1.43778819 4.61527704 -1.0625 6.8125 C-1.701875 7.204375 -2.34125 7.59625 -3 8 C-3.66 7.34 -4.32 6.68 -5 6 C-4.360625 5.566875 -3.72125 5.13375 -3.0625 4.6875 C-0.73253997 3.08760823 -0.73253997 3.08760823 0 0 Z " fill="#1D1000" transform="translate(13,27)"/>
<path d="M0 0 C1.78409802 3.06246747 2.22880021 5.22079273 2.125 8.75 C2.10695312 9.54921875 2.08890625 10.3484375 2.0703125 11.171875 C2.04710937 11.77515625 2.02390625 12.3784375 2 13 C0.515625 11.71875 0.515625 11.71875 -1 10 C-1.26641894 6.27013478 -1.1845131 3.55353929 0 0 Z " fill="#381E00" transform="translate(54,25)"/>
<path d="M0 0 C2.64 0.33 5.28 0.66 8 1 C8 1.33 8 1.66 8 2 C3.545 2.495 3.545 2.495 -1 3 C-0.67 2.01 -0.34 1.02 0 0 Z " fill="#353024" transform="translate(28,27)"/>
<path d="M0 0 C4.455 0.99 4.455 0.99 9 2 C9 2.33 9 2.66 9 3 C5.7 3.33 2.4 3.66 -1 4 C-0.67 2.68 -0.34 1.36 0 0 Z " fill="#020100" transform="translate(30,11)"/>
</svg>
