<?xml version="1.0" encoding="UTF-8"?>
<svg version="1.1" xmlns="http://www.w3.org/2000/svg" width="16" height="16">
<path d="M0 0 C0.86625 -0.00773438 1.7325 -0.01546875 2.625 -0.0234375 C5 0.375 5 0.375 6.7890625 1.5859375 C8.39038277 3.95175906 8.40035579 5.53515158 8.375 8.375 C8.38273437 9.24125 8.39046875 10.1075 8.3984375 11 C8 13.375 8 13.375 6.7890625 15.1640625 C4.42324094 16.76538277 2.83984842 16.77535579 0 16.75 C-0.86625 16.75773437 -1.7325 16.76546875 -2.625 16.7734375 C-5 16.375 -5 16.375 -6.7890625 15.1640625 C-8.39038277 12.79824094 -8.40035579 11.21484842 -8.375 8.375 C-8.38273438 7.50875 -8.39046875 6.6425 -8.3984375 5.75 C-8 3.375 -8 3.375 -6.7890625 1.5859375 C-4.42324094 -0.01538277 -2.83984842 -0.02535579 0 0 Z " fill="#C76900" transform="translate(8,-0.375)"/>
<path d="M0 0 C2.3431213 0.25561323 4.67843403 0.59270772 7 1 C8.43060128 3.86120256 8.38692581 5.84010585 8 9 C5.8125 10.9375 5.8125 10.9375 3 12 C-0.4010144 11.76271993 -1.569534 11.430466 -4 9 C-3.69670231 5.15822926 -2.47524576 2.90572328 0 0 Z " fill="#815318" transform="translate(6,2)"/>
<path d="M0 0 C1.98 0.495 1.98 0.495 4 1 C4.33 2.65 4.66 4.3 5 6 C2.13275314 5.42655063 1.1385485 5.1385485 -1 3 C-0.67 2.01 -0.34 1.02 0 0 Z " fill="#EACF9B" transform="translate(6,6)"/>
</svg>
