<?xml version="1.0" encoding="UTF-8"?>
<svg version="1.1" xmlns="http://www.w3.org/2000/svg" width="32" height="32">
<path d="M0 0 C3.92061103 2.19278684 6.97809862 4.95619724 9 9 C10.34009135 20.6039728 10.34009135 20.6039728 7.5078125 25.66796875 C4.31531972 29.30423128 1.94759708 31.77508065 -2.9765625 32.34375 C-14.03729021 32.81744284 -14.03729021 32.81744284 -18.8125 28.625 C-23.61624433 23.64713274 -23.50615879 19.37124985 -23.4921875 12.57421875 C-22.75174943 7.19722801 -20.18398445 4.28471177 -16 1 C-11.26503433 -1.36748284 -5.10642777 -0.70318022 0 0 Z " fill="#C66900" transform="translate(23,0)"/>
<path d="M0 0 C12.14362253 1.00475051 12.14362253 1.00475051 15.3125 4.6875 C16.29965667 9.44380033 16.68210482 13.12421175 15 17.75 C11.4230005 21.77412444 6.91202385 22.78354447 1.6875 23.375 C-1.42114857 22.94123508 -2.02788264 22.33068415 -4 20 C-6.09989652 18.82425289 -6.09989652 18.82425289 -8 18 C-8.93583226 10.51334196 -4.28147401 5.65003901 0 0 Z " fill="#3A2205" transform="translate(12,4)"/>
<path d="M0 0 C-0.99 0.495 -0.99 0.495 -2 1 C-2 1.66 -2 2.32 -2 3 C-1.38125 3.433125 -0.7625 3.86625 -0.125 4.3125 C2.47465864 6.3769348 3.16344851 7.80589431 4 11 C3.625 13.8125 3.625 13.8125 3 16 C-1.12168689 17.62950412 -3.70700357 18.26264601 -8 17 C-6.35 15.02 -4.7 13.04 -3 11 C-3.598125 11.33 -4.19625 11.66 -4.8125 12 C-7 13 -7 13 -10 13 C-11.6875 11.5 -11.6875 11.5 -13 10 C-8.10039841 -0.17609562 -8.10039841 -0.17609562 0 0 Z " fill="#EDD19C" transform="translate(19,8)"/>
<path d="M0 0 C-0.33 0.66 -0.66 1.32 -1 2 C-4.86986958 2.07442057 -8.2735915 2.04702186 -12 1 C-15.20231248 6.24391622 -18.36804809 11.44365709 -21 17 C-21.33 17 -21.66 17 -22 17 C-22.58250089 12.4879296 -22.94908953 8.61319075 -20.58203125 4.58984375 C-15.22800039 -1.70028633 -7.8222406 -5.00623398 0 0 Z " fill="#D47500" transform="translate(24,4)"/>
<path d="M0 0 C2.14729141 0.28073073 4.29283193 0.57488499 6.4375 0.875 C7.63246094 1.03742187 8.82742187 1.19984375 10.05859375 1.3671875 C11.51458984 1.68042969 11.51458984 1.68042969 13 2 C13.33 2.66 13.66 3.32 14 4 C12.824375 4.1546875 12.824375 4.1546875 11.625 4.3125 C8.66954819 4.77595022 8.66954819 4.77595022 7 8 C5.68 7.67 4.36 7.34 3 7 C3.66 7 4.32 7 5 7 C5 6.34 5 5.68 5 5 C2.06556598 5.26656572 2.06556598 5.26656572 -1 6 C-1.99 7.485 -1.99 7.485 -3 9 C-2.34 9.33 -1.68 9.66 -1 10 C-1.639375 10.28875 -2.27875 10.5775 -2.9375 10.875 C-5.15206079 11.82823451 -5.15206079 11.82823451 -6 14 C-5.01 14.33 -4.02 14.66 -3 15 C-3.33 15.99 -3.66 16.98 -4 18 C-3.34 18 -2.68 18 -2 18 C-2.33 18.99 -2.66 19.98 -3 21 C-5.5 19.875 -5.5 19.875 -8 18 C-8.96869945 13.83459239 -7.83195808 11.37522489 -5.6875 7.875 C-3.88441157 5.17848937 -1.95888664 2.58504102 0 0 Z " fill="#4B2900" transform="translate(12,4)"/>
<path d="M0 0 C-0.99 0.495 -0.99 0.495 -2 1 C-1.67 2.98 -1.34 4.96 -1 7 C-7.625 9.875 -7.625 9.875 -11 11 C-11.66 10.67 -12.32 10.34 -13 10 C-8.10039841 -0.17609562 -8.10039841 -0.17609562 0 0 Z " fill="#B59F75" transform="translate(19,8)"/>
<path d="M0 0 C0.66 0.33 1.32 0.66 2 1 C1.67 1.66 1.34 2.32 1 3 C0.34 3 -0.32 3 -1 3 C-1 3.66 -1 4.32 -1 5 C0.32 5.66 1.64 6.32 3 7 C3.1875 9.8125 3.1875 9.8125 3 13 C1.48828125 14.69921875 1.48828125 14.69921875 0 16 C-0.70133599 14.42274653 -1.385583 12.83788667 -2.0625 11.25 C-2.44535156 10.36828125 -2.82820313 9.4865625 -3.22265625 8.578125 C-4.0590987 5.80399426 -4.18041606 4.62314679 -3 2 C-2.01 1.34 -1.02 0.68 0 0 Z " fill="#BA6805" transform="translate(23,7)"/>
<path d="M0 0 C2.475 0.99 2.475 0.99 5 2 C4.67 2.99 4.34 3.98 4 5 C4.66 5 5.32 5 6 5 C5.67 5.99 5.34 6.98 5 8 C2.5 6.8125 2.5 6.8125 0 5 C-0.3125 2.3125 -0.3125 2.3125 0 0 Z " fill="#130C02" transform="translate(4,17)"/>
<path d="M0 0 C1.36125 0.12375 1.36125 0.12375 2.75 0.25 C1.76 0.745 1.76 0.745 0.75 1.25 C0.75 1.91 0.75 2.57 0.75 3.25 C-1.95879335 4.60439668 -4.25933268 4.31501451 -7.25 4.25 C-4.83923194 1.28290085 -3.90322061 0.30024774 0 0 Z " fill="#AF670E" transform="translate(16.25,7.75)"/>
<path d="M0 0 C-1.04874998 2.62187494 -1.64931313 3.79371361 -4.125 5.25 C-4.74375 5.4975 -5.3625 5.745 -6 6 C-6 5.01 -6 4.02 -6 3 C-6.66 3 -7.32 3 -8 3 C-7.67 2.34 -7.34 1.68 -7 1 C-4.61370553 0.38812962 -2.46459429 0 0 0 Z " fill="#7E5827" transform="translate(16,19)"/>
<path d="M0 0 C0.33 0 0.66 0 1 0 C1 3.63 1 7.26 1 11 C-0.65 11.33 -2.3 11.66 -4 12 C-3.67 10.68 -3.34 9.36 -3 8 C-2.34 8 -1.68 8 -1 8 C-0.67 5.36 -0.34 2.72 0 0 Z " fill="#BC6500" transform="translate(30,11)"/>
<path d="M0 0 C0.66 0.66 1.32 1.32 2 2 C1.01 3.32 0.02 4.64 -1 6 C-0.34 6.33 0.32 6.66 1 7 C0.38125 7.28875 -0.2375 7.5775 -0.875 7.875 C-3.13325765 8.93720042 -3.13325765 8.93720042 -5 11 C-5 7.58678765 -4.33132534 6.60527115 -2.5 3.8125 C-2.0359375 3.09707031 -1.571875 2.38164062 -1.09375 1.64453125 C-0.7328125 1.10183594 -0.371875 0.55914062 0 0 Z " fill="#36230C" transform="translate(10,7)"/>
<path d="M0 0 C1.98 0 3.96 0 6 0 C6 0.66 6 1.32 6 2 C3.625 3.0625 3.625 3.0625 1 4 C0.34 3.67 -0.32 3.34 -1 3 C-0.67 2.01 -0.34 1.02 0 0 Z " fill="#C16F0B" transform="translate(7,15)"/>
</svg>
